<svg width="24" height="24" viewBox="0 0 24 24" fill="none" xmlns="http://www.w3.org/2000/svg">
<path d="M18.2813 17.9375C18.0375 17.9375 17.7938 17.7687 17.7375 17.5062L16.6875 13.3063C16.5375 12.725 16.0125 12.3125 15.4125 12.3125H14.2875L12.5438 17.5438C12.4688 17.7688 12.2438 17.9375 12.0188 17.9375C11.7938 17.9375 11.5688 17.7875 11.4938 17.5438L9.71253 12.3125H8.58753C7.98753 12.3125 7.46253 12.725 7.31253 13.3063L6.28128 17.45C6.20628 17.75 5.90628 17.9375 5.60628 17.8625C5.30628 17.7875 5.11878 17.4875 5.19378 17.1875L6.22503 13.0438C6.48753 11.9375 7.46253 11.1875 8.58753 11.1875H10.125C10.3688 11.1875 10.575 11.3375 10.65 11.5812L12 15.6125L13.35 11.5812C13.425 11.3562 13.65 11.1875 13.875 11.1875H15.4125C16.5375 11.1875 17.5125 11.9375 17.775 13.025L18.825 17.225C18.9 17.525 18.7125 17.825 18.4125 17.9C18.375 17.9375 18.3188 17.9375 18.2813 17.9375Z" fill="#27AE60" stroke="#27AE60"/>
<path d="M12 9.25C9.61875 9.25 7.6875 7.31875 7.6875 4.9375C7.6875 2.55625 9.61875 0.625 12 0.625C14.3812 0.625 16.3125 2.55625 16.3125 4.9375C16.3125 7.31875 14.3812 9.25 12 9.25ZM12 1.75C10.2375 1.75 8.8125 3.175 8.8125 4.9375C8.8125 6.7 10.2375 8.125 12 8.125C13.7625 8.125 15.1875 6.7 15.1875 4.9375C15.1875 3.175 13.7625 1.75 12 1.75Z" fill="#27AE60" stroke="#27AE60"/>
<path d="M21.2994 21.763H5.90739C5.61665 21.763 5.39432 21.5406 5.39432 21.2499C5.39432 20.9591 5.61665 20.7368 5.90739 20.7368H21.2994C21.5902 20.7368 21.8125 20.9591 21.8125 21.2499C21.8125 21.5406 21.5902 21.763 21.2994 21.763ZM3.51307 21.763C3.37625 21.763 3.23943 21.7116 3.15392 21.609C3.05131 21.5235 3 21.3867 3 21.2499C3 21.1131 3.05131 20.9762 3.15392 20.8907C3.34205 20.7026 3.68409 20.7026 3.87222 20.8907C3.97483 20.9934 4.02614 21.1131 4.02614 21.2499C4.02614 21.3867 3.97483 21.5235 3.87222 21.609C3.7867 21.7116 3.64989 21.763 3.51307 21.763Z" fill="#27AE60" stroke="#27AE60" stroke-width="0.912121"/>
</svg>
