<svg width="33" height="33" viewBox="0 0 33 33" fill="none" xmlns="http://www.w3.org/2000/svg">
<g clip-path="url(#clip0_121_1662)">
<rect opacity="0.3" x="0.587891" y="0.754395" width="32" height="32" rx="10" fill="#9B51E0"/>
<path fill-rule="evenodd" clip-rule="evenodd" d="M16.5885 10.0879C20.2704 10.0879 23.2552 13.0727 23.2552 16.7546C23.2552 20.4365 20.2704 23.4212 16.5885 23.4212C12.9066 23.4212 9.92188 20.4365 9.92188 16.7546C9.92188 13.0727 12.9066 10.0879 16.5885 10.0879ZM16.5885 11.4212C13.643 11.4212 11.2552 13.809 11.2552 16.7546C11.2552 19.7001 13.643 22.0879 16.5885 22.0879C19.5341 22.0879 21.9219 19.7001 21.9219 16.7546C21.9219 13.809 19.5341 11.4212 16.5885 11.4212ZM16.5885 19.4212C16.9567 19.4212 17.2552 19.7197 17.2552 20.0879C17.2552 20.4561 16.9567 20.7546 16.5885 20.7546C16.2204 20.7546 15.9219 20.4561 15.9219 20.0879C15.9219 19.7197 16.2204 19.4212 16.5885 19.4212ZM16.5885 12.7546C16.9567 12.7546 17.2552 13.053 17.2552 13.4212L17.2552 17.4212C17.2552 17.7894 16.9567 18.0879 16.5885 18.0879C16.2204 18.0879 15.9219 17.7894 15.9219 17.4212L15.9219 13.4212C15.9219 13.053 16.2204 12.7546 16.5885 12.7546Z" fill="#9B51E0"/>
</g>
<defs>
<clipPath id="clip0_121_1662">
<rect width="32" height="32" fill="white" transform="translate(0.587891 0.754395)"/>
</clipPath>
</defs>
</svg>
