<svg width="130" height="34" viewBox="0 0 130 34" fill="none" xmlns="http://www.w3.org/2000/svg">
<path d="M43.887 25H52.239C55.527 25 57.591 23.224 57.591 20.152C57.591 17.944 56.703 16.744 55.335 16.096V16C56.175 15.4 56.967 14.392 56.967 12.568C56.967 9.808 54.927 8.2 51.927 8.2H43.887V25ZM47.631 14.68V11.512H51.375C52.647 11.512 53.151 12.184 53.151 13.096C53.151 14.008 52.647 14.68 51.375 14.68H47.631ZM47.631 21.664V17.944H51.615C53.247 17.944 53.751 18.952 53.751 19.792C53.751 20.8 53.223 21.664 51.615 21.664H47.631ZM59.3914 25H62.8474V18.808C62.8474 16.792 63.9754 15.616 65.7274 15.616H66.9274V12.232H66.0634C64.4554 12.232 63.3994 13.168 62.8474 14.272H62.7514L62.4634 12.448H59.3914V25ZM72.16 25.216C73.72 25.216 74.824 24.664 75.52 23.872H75.616L75.88 25H79.192V16.744C79.192 14.128 77.128 12.232 73.696 12.232C70 12.232 68.296 14.248 68.296 16.6H71.752C71.752 15.832 72.424 15.208 73.576 15.208C74.944 15.208 75.496 15.88 75.496 16.744V17.776C74.992 17.608 73.744 17.416 72.808 17.416C69.352 17.416 67.768 18.952 67.768 21.28C67.768 23.512 69.328 25.216 72.16 25.216ZM73.096 22.336C71.992 22.336 71.416 21.808 71.416 21.088C71.416 20.416 72.04 19.888 73.24 19.888C73.96 19.888 74.728 19.984 75.496 20.296V20.416C75.496 21.448 74.608 22.336 73.096 22.336ZM88.6243 16.264L95.8483 8.44V8.2H91.4323L85.6003 14.56V8.2H81.8323V25H85.6003V18.04L91.6723 25H96.1363V24.76L88.6243 16.264ZM101.757 25.216C105.189 25.216 107.181 23.224 107.517 20.968H103.941C103.725 21.544 103.125 22.216 101.757 22.216C100.077 22.216 99.3334 21.184 99.3094 19.72H107.685V18.352C107.685 14.944 105.525 12.232 101.685 12.232C97.6054 12.232 95.5414 15.184 95.5414 18.736C95.5414 22.336 97.7974 25.216 101.757 25.216ZM99.3334 17.392C99.4054 16.192 100.101 15.256 101.685 15.256C103.149 15.256 103.845 16.192 103.917 17.392H99.3334ZM124.165 12.232C122.293 12.232 121.069 13.12 120.421 13.936H120.349C119.605 12.832 118.309 12.232 116.605 12.232C114.973 12.232 113.869 12.832 113.173 13.648H113.077L112.789 12.448H109.477V25H113.173V18.04C113.173 16.528 114.133 15.592 115.453 15.592C116.917 15.592 117.421 16.456 117.421 17.896V25H121.069V18.04C121.069 16.552 121.837 15.592 123.157 15.592C124.621 15.592 125.125 16.456 125.125 17.896V25H128.821V16.744C128.821 13.96 126.949 12.232 124.165 12.232Z" fill="#27AE60"/>
<path d="M29.1401 26.277L22.4791 16.3492C21.6291 15.0012 21.2168 13.4008 21.2168 11.6875V5.51172C21.2168 4.2168 22.053 3.30371 22.2135 2.71714C22.366 2.15986 22.2475 2.1582 21.2049 2.1582H12.785C11.7225 2.1582 11.5533 2.1588 11.7018 2.71708C11.8624 3.32031 12.7168 4.26992 12.7168 5.54492V11.6875C12.7168 13.4008 12.2331 14.9945 11.3831 16.3492L8.11062 21.4293L4.85001 26.2703C4.46485 26.868 4.24896 27.6449 4.24896 28.4086C4.24896 30.268 5.33451 31.9082 8.44889 31.9082H25.5544C28.6754 31.9082 29.7511 30.268 29.7511 28.4086C29.7444 27.6449 29.5252 26.8746 29.1401 26.277ZM27.1747 29.2852C26.8825 29.5641 26.4042 29.7832 25.5478 29.7832H8.44218C7.59218 29.7832 7.06094 29.5508 6.76881 29.2719C6.58952 29.0992 6.37038 28.8037 6.37038 28.3854C6.37038 28.0533 6.46335 27.713 6.62936 27.4474L13.2062 17.4604C14.2487 15.787 14.8419 13.7927 14.8419 11.6876V4.2832H19.0919V11.6809C19.0919 13.7527 19.6073 15.7516 20.6763 17.4582L27.3516 27.4191C27.5176 27.6848 27.6151 28.0334 27.6151 28.3654C27.6151 28.7904 27.354 29.1125 27.1747 29.2852Z" fill="#27AE60"/>
<path d="M25.8464 27.313C25.8498 27.3179 25.8531 27.3393 25.8464 27.3295L20.4096 19.1582H13.5268L8.14333 27.3362C8.04373 27.4757 7.9906 27.6799 7.9906 27.8657C7.9906 28.3638 8.40816 28.7871 8.8995 28.7871H25.1026C25.6007 28.7871 26.0057 28.3405 26.0057 27.8491C26.0056 27.6831 25.9327 27.4458 25.8464 27.313ZM20.0561 22.691C19.9565 22.5914 19.9034 22.4519 19.9034 22.3125C19.9034 22.1731 19.963 22.0336 20.0561 21.934C20.1557 21.8344 20.2951 21.7812 20.428 21.7812C20.5675 21.7812 20.7069 21.8344 20.8 21.934C20.8996 22.0336 20.9526 22.1731 20.9526 22.3125C20.9526 22.4519 20.8929 22.5914 20.8 22.691C20.7004 22.7906 20.5675 22.8438 20.428 22.8438C20.2951 22.8438 20.1557 22.784 20.0561 22.691ZM23.1705 26.609C23.0775 26.6686 22.9779 26.6953 22.8848 26.6953C22.7188 26.6953 22.5462 26.609 22.4466 26.4562L20.8862 24.0723C20.7268 23.8266 20.7932 23.4945 21.0388 23.3352C21.1318 23.2754 21.2314 23.2488 21.331 23.2488C21.5037 23.2488 21.6697 23.3352 21.7627 23.4879L23.3232 25.8719C23.4824 26.1175 23.416 26.4495 23.1705 26.609Z" fill="#27AE60"/>
</svg>
