<svg width="16" height="21" viewBox="0 0 16 21" fill="none" xmlns="http://www.w3.org/2000/svg">
<path fill-rule="evenodd" clip-rule="evenodd" d="M5.19964 17.8601H2.97214C1.74181 17.8601 0.744629 16.8833 0.744629 15.6782C0.744629 12.6353 0.744629 5.62952 0.744629 2.58734C0.744629 2.00843 0.979261 1.45352 1.39729 1.04479C1.81458 0.635334 2.3811 0.405518 2.97214 0.405518C5.54342 0.405518 10.7959 0.405518 13.3672 0.405518C13.9582 0.405518 14.5247 0.635334 14.942 1.04479C15.36 1.45352 15.5947 2.00843 15.5947 2.58734C15.5947 5.62952 15.5947 12.6353 15.5947 15.6782C15.5947 16.8833 14.5975 17.8601 13.3672 17.8601H11.1397V20.0419C11.1397 20.2804 11.0201 20.5037 10.8204 20.6397C10.6199 20.7757 10.3645 20.8062 10.1365 20.7226L8.16965 19.9997L6.20277 20.7226C5.97482 20.8062 5.7194 20.7757 5.51892 20.6397C5.31919 20.5037 5.19964 20.2804 5.19964 20.0419V17.8601ZM6.68465 16.1022V18.9924L7.90903 18.5422C8.07684 18.4804 8.26247 18.4804 8.43027 18.5422L9.65466 18.9924V16.1022C9.1995 16.2971 8.69757 16.4055 8.16965 16.4055C7.64173 16.4055 7.1398 16.2971 6.68465 16.1022ZM11.1397 16.4055H13.3672C13.777 16.4055 14.1097 16.0797 14.1097 15.6782C14.1097 12.6353 14.1097 5.62952 14.1097 2.58734C14.1097 2.39461 14.0317 2.20915 13.8921 2.07315C13.7533 1.93643 13.5639 1.86006 13.3672 1.86006C10.7959 1.86006 5.54342 1.86006 2.97214 1.86006C2.77537 1.86006 2.58603 1.93643 2.44719 2.07315C2.3076 2.20915 2.22963 2.39461 2.22963 2.58734C2.22963 5.62952 2.22963 12.6353 2.22963 15.6782C2.22963 16.0797 2.56227 16.4055 2.97214 16.4055H5.19964V14.951V14.9502C4.73335 14.3422 4.45714 13.5873 4.45714 12.7692C4.45714 10.7619 6.12035 9.13279 8.16965 9.13279C10.219 9.13279 11.8822 10.7619 11.8822 12.7692C11.8822 13.5873 11.606 14.3422 11.1397 14.9502V14.951V16.4055ZM8.16965 10.5873C9.39924 10.5873 10.3972 11.5648 10.3972 12.7692C10.3972 13.9735 9.39924 14.951 8.16965 14.951C6.94007 14.951 5.94215 13.9735 5.94215 12.7692C5.94215 11.5648 6.94007 10.5873 8.16965 10.5873ZM4.45714 7.67824H11.8822C12.292 7.67824 12.6247 7.35243 12.6247 6.95097C12.6247 6.54952 12.292 6.2237 11.8822 6.2237H4.45714C4.04728 6.2237 3.71464 6.54952 3.71464 6.95097C3.71464 7.35243 4.04728 7.67824 4.45714 7.67824ZM5.94215 4.76915H10.3972C10.807 4.76915 11.1397 4.44334 11.1397 4.04188C11.1397 3.64043 10.807 3.31461 10.3972 3.31461H5.94215C5.53228 3.31461 5.19964 3.64043 5.19964 4.04188C5.19964 4.44334 5.53228 4.76915 5.94215 4.76915Z" fill="white"/>
</svg>
