<svg width="18" height="15" viewBox="0 0 18 15" fill="none" xmlns="http://www.w3.org/2000/svg">
<path fill-rule="evenodd" clip-rule="evenodd" d="M17.21 0.207177C17.3142 0.287244 17.4016 0.387062 17.4672 0.500922C17.5328 0.614782 17.5753 0.740453 17.5923 0.870751C17.6093 1.00105 17.6004 1.13342 17.5662 1.26029C17.532 1.38717 17.4732 1.50606 17.393 1.61018L7.39302 14.6102C7.30626 14.7229 7.19644 14.8159 7.07089 14.8828C6.94534 14.9498 6.80696 14.9891 6.66498 14.9983C6.523 15.0075 6.3807 14.9863 6.24757 14.9361C6.11445 14.8859 5.99357 14.8078 5.89302 14.7072L0.893017 9.70718C0.710859 9.51857 0.610064 9.26597 0.612342 9.00378C0.614621 8.74158 0.71979 8.49077 0.905198 8.30536C1.09061 8.11995 1.34142 8.01478 1.60362 8.0125C1.86581 8.01023 2.11841 8.11102 2.30702 8.29318L6.50202 12.4882L15.807 0.390177C15.8871 0.285987 15.9869 0.198598 16.1008 0.133007C16.2146 0.0674151 16.3403 0.0249068 16.4706 0.00791137C16.6009 -0.00908402 16.7333 -0.000233173 16.8601 0.0339581C16.987 0.0681494 17.1059 0.12701 17.21 0.207177Z" fill="#27AE60"/>
</svg>
