<svg width="24" height="24" viewBox="0 0 24 24" fill="none" xmlns="http://www.w3.org/2000/svg">
<path fill-rule="evenodd" clip-rule="evenodd" d="M9.293 1.29347C9.48049 1.10593 9.73481 1.00054 10 1.00049H18C18.7956 1.00049 19.5587 1.31654 20.1213 1.87912C20.6839 2.44171 21 3.20473 21 4.00034V19.9995C21 20.7952 20.6839 21.5582 20.1213 22.1208C19.5587 22.6833 18.7956 22.9994 18 22.9994H6C5.20435 22.9994 4.44129 22.6833 3.87868 22.1208C3.31607 21.5582 3 20.7952 3 19.9995V8.00014C3.00006 7.73496 3.10545 7.48066 3.293 7.29318L9.293 1.29347ZM18 3.00039H11V8.00014C11 8.26534 10.8946 8.51969 10.7071 8.70721C10.5196 8.89474 10.2652 9.00009 10 9.00009H5V19.9995C5 20.2647 5.10536 20.5191 5.29289 20.7066C5.48043 20.8941 5.73478 20.9995 6 20.9995H18C18.2652 20.9995 18.5196 20.8941 18.7071 20.7066C18.8946 20.5191 19 20.2647 19 19.9995V4.00034C19 3.73514 18.8946 3.48079 18.7071 3.29327C18.5196 3.10574 18.2652 3.00039 18 3.00039ZM6.414 7.00019H9V4.41432L6.414 7.00019ZM7 12.9999C7 12.7347 7.10536 12.4803 7.29289 12.2928C7.48043 12.1053 7.73478 11.9999 8 11.9999H16C16.2652 11.9999 16.5196 12.1053 16.7071 12.2928C16.8946 12.4803 17 12.7347 17 12.9999C17 13.2651 16.8946 13.5194 16.7071 13.707C16.5196 13.8945 16.2652 13.9998 16 13.9998H8C7.73478 13.9998 7.48043 13.8945 7.29289 13.707C7.10536 13.5194 7 13.2651 7 12.9999ZM7 16.9997C7 16.7345 7.10536 16.4801 7.29289 16.2926C7.48043 16.1051 7.73478 15.9997 8 15.9997H16C16.2652 15.9997 16.5196 16.1051 16.7071 16.2926C16.8946 16.4801 17 16.7345 17 16.9997C17 17.2649 16.8946 17.5192 16.7071 17.7068C16.5196 17.8943 16.2652 17.9996 16 17.9996H8C7.73478 17.9996 7.48043 17.8943 7.29289 17.7068C7.10536 17.5192 7 17.2649 7 16.9997Z" fill="#333333"/>
</svg>
