<svg width="33" height="33" viewBox="0 0 33 33" fill="none" xmlns="http://www.w3.org/2000/svg">
<g clip-path="url(#clip0_121_1934)">
<rect opacity="0.3" x="0.587891" y="0.754395" width="32" height="32" rx="10" fill="#9B51E0"/>
<path fill-rule="evenodd" clip-rule="evenodd" d="M21.2552 11.4209C22.3598 11.4209 23.2552 12.3163 23.2552 13.4209L23.2552 20.0876C23.2552 21.1921 22.3598 22.0876 21.2552 22.0876L11.9219 22.0876C10.8173 22.0876 9.92188 21.1921 9.92188 20.0876L9.92188 13.4209C9.92188 12.3163 10.8173 11.4209 11.9219 11.4209L21.2552 11.4209ZM21.9219 13.6395L17.0275 17.9225C16.7971 18.1241 16.4626 18.1409 16.2148 17.9729L16.1495 17.9225L11.2552 13.6402L11.2552 20.0875C11.2552 20.4557 11.5537 20.7542 11.9219 20.7542L21.2552 20.7542C21.6234 20.7542 21.9219 20.4557 21.9219 20.0875L21.9219 13.6395ZM20.9083 12.7542L12.2669 12.7542L16.5883 16.5351L20.9083 12.7542Z" fill="#9B51E0"/>
</g>
<defs>
<clipPath id="clip0_121_1934">
<rect width="32" height="32" fill="white" transform="translate(0.587891 0.754395)"/>
</clipPath>
</defs>
</svg>
