<svg width="34" height="34" viewBox="0 0 34 34" fill="none" xmlns="http://www.w3.org/2000/svg">
<path d="M29.1401 26.277L22.4791 16.3492C21.6291 15.0012 21.2168 13.4008 21.2168 11.6875V5.51172C21.2168 4.2168 22.053 3.30371 22.2135 2.71714C22.366 2.15986 22.2475 2.1582 21.2049 2.1582H12.785C11.7225 2.1582 11.5533 2.1588 11.7018 2.71708C11.8624 3.32031 12.7168 4.26992 12.7168 5.54492V11.6875C12.7168 13.4008 12.2331 14.9945 11.3831 16.3492L8.11062 21.4293L4.85001 26.2703C4.46485 26.868 4.24896 27.6449 4.24896 28.4086C4.24896 30.268 5.33451 31.9082 8.44889 31.9082H25.5544C28.6754 31.9082 29.7511 30.268 29.7511 28.4086C29.7444 27.6449 29.5252 26.8746 29.1401 26.277V26.277ZM27.1747 29.2852C26.8825 29.5641 26.4042 29.7832 25.5478 29.7832H8.44218C7.59218 29.7832 7.06094 29.5508 6.76881 29.2719C6.58952 29.0992 6.37038 28.8037 6.37038 28.3854C6.37038 28.0533 6.46335 27.713 6.62936 27.4474L13.2062 17.4604C14.2487 15.787 14.8419 13.7927 14.8419 11.6876V4.2832H19.0919V11.6809C19.0919 13.7527 19.6073 15.7516 20.6763 17.4582L27.3516 27.4191C27.5176 27.6848 27.6151 28.0334 27.6151 28.3654C27.6151 28.7904 27.354 29.1125 27.1747 29.2852V29.2852Z" fill="#27AE60"/>
<path d="M25.8464 27.313C25.8498 27.3179 25.8531 27.3393 25.8464 27.3295L20.4096 19.1582H13.5268L8.14333 27.3362C8.04373 27.4757 7.9906 27.6799 7.9906 27.8657C7.9906 28.3638 8.40816 28.7871 8.8995 28.7871H25.1026C25.6007 28.7871 26.0057 28.3405 26.0057 27.8491C26.0056 27.6831 25.9327 27.4458 25.8464 27.313ZM20.0561 22.691C19.9565 22.5914 19.9034 22.4519 19.9034 22.3125C19.9034 22.1731 19.963 22.0336 20.0561 21.934C20.1557 21.8344 20.2951 21.7812 20.428 21.7812C20.5675 21.7812 20.7069 21.8344 20.8 21.934C20.8996 22.0336 20.9526 22.1731 20.9526 22.3125C20.9526 22.4519 20.8929 22.5914 20.8 22.691C20.7004 22.7906 20.5675 22.8438 20.428 22.8438C20.2951 22.8438 20.1557 22.784 20.0561 22.691ZM23.1705 26.609C23.0775 26.6686 22.9779 26.6953 22.8848 26.6953C22.7188 26.6953 22.5462 26.609 22.4466 26.4562L20.8862 24.0723C20.7268 23.8266 20.7932 23.4945 21.0388 23.3352C21.1318 23.2754 21.2314 23.2488 21.331 23.2488C21.5037 23.2488 21.6697 23.3352 21.7627 23.4879L23.3232 25.8719C23.4824 26.1175 23.416 26.4495 23.1705 26.609V26.609Z" fill="#27AE60"/>
</svg>
