<svg width="34" height="25" viewBox="0 0 34 25" fill="none" xmlns="http://www.w3.org/2000/svg">
<mask id="mask0_123_723" style="mask-type:alpha" maskUnits="userSpaceOnUse" x="0" y="0" width="34" height="25">
<path d="M30.4 0.5H3.2C1.43269 0.5 0 1.93269 0 3.7V21.3C0 23.0673 1.43269 24.5 3.2 24.5H30.4C32.1673 24.5 33.6 23.0673 33.6 21.3V3.7C33.6 1.93269 32.1673 0.5 30.4 0.5Z" fill="white"/>
</mask>
<g mask="url(#mask0_123_723)">
<path d="M30.4 0.5H3.2C1.43269 0.5 0 1.93269 0 3.7V21.3C0 23.0673 1.43269 24.5 3.2 24.5H30.4C32.1673 24.5 33.6 23.0673 33.6 21.3V3.7C33.6 1.93269 32.1673 0.5 30.4 0.5Z" fill="#333333"/>
<path fill-rule="evenodd" clip-rule="evenodd" d="M4.79995 2.1001L1.55835 2.1417L1.59995 5.3001L28.7711 22.9449L32.0303 22.8857L31.9695 19.7465L4.79995 2.1001Z" fill="white"/>
<path fill-rule="evenodd" clip-rule="evenodd" d="M3.19985 2.1001L1.59985 3.7001L30.3999 22.9001L31.9999 21.3001L3.19985 2.1001Z" fill="#C7152A"/>
<path fill-rule="evenodd" clip-rule="evenodd" d="M28.8 2.1001H32V5.3001C32 5.3001 13.2 17.1337 4.82883 22.9449C4.72803 23.0153 1.63203 22.9497 1.63203 22.9497L1.38403 19.9081L28.8 2.1001Z" fill="white"/>
<path fill-rule="evenodd" clip-rule="evenodd" d="M30.4687 2.05518L31.9999 3.69998L3.19985 22.9L1.59985 21.3L30.4687 2.05518Z" fill="#C7152A"/>
<path fill-rule="evenodd" clip-rule="evenodd" d="M12.7999 2.1001H20.7999V8.5001H31.9999V16.5001H20.7999V22.9001H12.7999V16.5001H1.59985V8.5001H12.7999V2.1001Z" fill="white"/>
<path fill-rule="evenodd" clip-rule="evenodd" d="M14.3999 2.1001H19.1999V10.1001H31.9999V14.9001H19.1999V22.9001H14.3999V14.9001H1.59985V10.1001H14.3999V2.1001Z" fill="#C7152A"/>
<path d="M30.4 1.2998H3.20005C1.87457 1.2998 0.800049 2.37432 0.800049 3.6998V21.2998C0.800049 22.6253 1.87457 23.6998 3.20005 23.6998H30.4C31.7255 23.6998 32.8 22.6253 32.8 21.2998V3.6998C32.8 2.37432 31.7255 1.2998 30.4 1.2998Z" stroke="black" stroke-opacity="0.1" stroke-width="2.04762"/>
</g>
</svg>
