<svg width="34" height="24" viewBox="0 0 34 24" fill="none" xmlns="http://www.w3.org/2000/svg">
<mask id="mask0_272_1587" style="mask-type:alpha" maskUnits="userSpaceOnUse" x="0" y="0" width="34" height="24">
<path d="M30.4 0H3.2C1.43269 0 0 1.43269 0 3.2V20.8C0 22.5673 1.43269 24 3.2 24H30.4C32.1673 24 33.6 22.5673 33.6 20.8V3.2C33.6 1.43269 32.1673 0 30.4 0Z" fill="white"/>
</mask>
<g mask="url(#mask0_272_1587)">
<path d="M30.4 0H3.2C1.43269 0 0 1.43269 0 3.2V20.8C0 22.5673 1.43269 24 3.2 24H30.4C32.1673 24 33.6 22.5673 33.6 20.8V3.2C33.6 1.43269 32.1673 0 30.4 0Z" fill="#085CCE"/>
<path fill-rule="evenodd" clip-rule="evenodd" d="M9.6 14.4H0V9.6H9.6V0H14.4V9.6H33.6V14.4H14.4V24H9.6V14.4Z" fill="white"/>
<path d="M30.3998 0.799805H3.1998C1.87432 0.799805 0.799805 1.87432 0.799805 3.1998V20.7998C0.799805 22.1253 1.87432 23.1998 3.1998 23.1998H30.3998C31.7253 23.1998 32.7998 22.1253 32.7998 20.7998V3.1998C32.7998 1.87432 31.7253 0.799805 30.3998 0.799805Z" stroke="black" stroke-opacity="0.1" stroke-width="2.04762"/>
</g>
</svg>
