<svg width="32" height="32" viewBox="0 0 32 32" fill="none" xmlns="http://www.w3.org/2000/svg">
<g clip-path="url(#clip0_123_665)">
<rect opacity="0.3" x="-0.412109" width="32" height="32" rx="10" fill="#EB5757"/>
<path fill-rule="evenodd" clip-rule="evenodd" d="M16.3742 9.51938C16.7142 9.68941 16.9899 9.96514 17.16 10.3052L22.0693 20.1239C22.5033 20.9919 22.1515 22.0473 21.2835 22.4813C21.0395 22.6033 20.7705 22.6668 20.4977 22.6668L10.679 22.6668C9.70856 22.6668 8.92188 21.8801 8.92188 20.9097C8.92188 20.6369 8.98539 20.3679 9.10738 20.1239L14.0167 10.3052C14.4507 9.43721 15.5062 9.0854 16.3742 9.51938ZM15.08 10.9812L10.3152 20.5108C10.2758 20.5897 10.2552 20.6768 10.2552 20.765C10.2552 21.079 10.5097 21.3335 10.8237 21.3335L20.3533 21.3335C20.4415 21.3335 20.5286 21.3129 20.6075 21.2735C20.8883 21.1331 21.0021 20.7916 20.8617 20.5108L16.0969 10.9812C16.0419 10.8712 15.9527 10.782 15.8427 10.727C15.5619 10.5866 15.2204 10.7004 15.08 10.9812ZM15.5885 18.6668C15.9567 18.6668 16.2552 18.9653 16.2552 19.3335C16.2552 19.7017 15.9567 20.0002 15.5885 20.0002C15.2204 20.0002 14.9219 19.7017 14.9219 19.3335C14.9219 18.9653 15.2204 18.6668 15.5885 18.6668ZM15.5885 13.3335C15.9567 13.3335 16.2552 13.632 16.2552 14.0002L16.2552 16.6668C16.2552 17.035 15.9567 17.3335 15.5885 17.3335C15.2204 17.3335 14.9219 17.035 14.9219 16.6668L14.9219 14.0002C14.9219 13.632 15.2204 13.3335 15.5885 13.3335Z" fill="#EB5757"/>
</g>
<defs>
<clipPath id="clip0_123_665">
<rect width="32" height="32" fill="white"/>
</clipPath>
</defs>
</svg>
